<svg width="300" height="300" xmlns="http://www.w3.org/2000/svg" xmlns:xlink="http://www.w3.org/1999/xlink"><defs><path id="prefix__a" d="M.034 0H300v300H.034z"/><path id="prefix__c" d="M.034 0h60.962v300H.034z"/><path id="prefix__e" d="M.034.022h211.711v176.467H.034z"/><path id="prefix__g" d="M.034.31h211.239v269.431H.034z"/><path id="prefix__i" d="M.034.483H201.97v79.008H.034z"/><path id="prefix__k" d="M.034.371h51.451v99.858H.034z"/></defs><g fill="none" fill-rule="evenodd" opacity=".1"><mask id="prefix__b" fill="#fff"><use xlink:href="#prefix__a"/></mask><path fill="#000" mask="url(#prefix__b)" d="M4.847 289.897L9.04 300h-.458l-3.898-9.392L0 294.755v-.566l4.625-4.095.222-.197"/><path fill="#000" mask="url(#prefix__b)" d="M5.045 290.289L0 294.755v-.566l4.487-3.973L0 283.469v-.764l4.942 7.43.103.154"/><path fill="#000" d="M300 294.755L294.076 300h-.639l6.563-5.811v.566"/><path fill="#000" d="M300 294.755L294.077 300h-.64l6.563-5.811v.566M284.55 259.476L300 282.705v.765l-15.411-23.172L263.229 300h-.48l21.801-40.524"/><path fill="#000" d="M263.229 300h-.48l21.183-39.376L230.921 300h-.71l54.995-40.85L263.229 300"/><path fill="#000" d="M230.069 270.875l55.394-11.388L230.922 300h-.711l53.464-39.713-53.332 10.964L213.985 300h-.488l16.525-29.041.047-.084"/><path fill="#000" d="M213.985 300h-.488l16.092-28.28L186.314 300h-.774l45.284-29.593L213.985 300"/><path fill="#000" d="M230.7 270.994L186.315 300h-.775l44.172-28.867-40.982-12.601L162.464 300h-.502l26.583-41.968 42.155 12.962"/><path fill="#000" d="M172.514 262.908l16.606-4.992L162.464 300h-.502l26.193-41.351-15.33 4.608L157.048 300h-.461l15.888-37.001.039-.091M15.723 300h-.628l-9.766-8.942L9.05 300h-.458l-4.391-10.549L15.723 300M132.358 300h-.474l-18.247-36.165L110.498 300h-.426l3.271-37.686L132.358 300"/><path fill="#000" d="M172.991 262.871L157.049 300h-.462l15.761-36.706-58.514-.008L132.358 300h-.474l-18.738-37.137 59.845.008"/><path fill="#000" d="M110.497 300h-.425l3.154-36.334L79.134 300h-.581l35.201-37.516L110.497 300"/><path fill="#000" d="M60.537 293.291l54.082-31.111L79.133 300h-.58l33.807-36.031-51.464 29.604L58.995 300h-.442l1.961-6.628.023-.081"/><mask id="prefix__d" fill="#fff"><use xlink:href="#prefix__c"/></mask><path fill="#000" mask="url(#prefix__d)" d="M4.183 290.01l56.546 3.211.267.015L58.995 300h-.442l1.885-6.371L5.346 290.5l10.377 9.5h-.628l-10.473-9.589-.439-.401"/><path fill="#000" mask="url(#prefix__d)" d="M0 283.468v-.765l4.363 6.56L0 266.294v-2.27l5.17 27.218L0 283.468M0 192.145v-.772l18.871-28.744L0 157.554v-.439l19.547 5.256L0 192.145"/><path fill="#000" mask="url(#prefix__d)" d="M19.384 162.767L0 157.554v-.439l19.034 5.118 4.67-31.476L0 143.697v-.483l24.248-13.237-4.864 32.79"/><path fill="#000" mask="url(#prefix__d)" d="M24.261 130.453L0 143.697v-.483l23.691-12.933L0 85.555v-.906l24.163 45.619.098.185M27.779 43.755L0 71.533v-.599l26.459-26.459L0 50.221v-.433l27.073-5.88.706-.153"/><path fill="#000" mask="url(#prefix__d)" d="M27.164 44.322L0 50.221v-.433l23.848-5.18L0 46.656v-.425l27.101-2.327.063.418"/><path fill="#000" mask="url(#prefix__d)" d="M0 46.656v-.425l26.812-2.302L8.582 0h.458l18.385 44.301L0 46.656"/><path d="M126.614 173.7l23.594 40.896 15.729-47.188-39.323 6.292zm-.52-.054l-.154-.267 40.62-6.5-16.248 48.745-24.219-41.978z" fill="#000"/><path d="M166.372 167.442l-15.597 46.792 34.314-37.432-18.717-9.36zm-.248-.597l19.406 9.703.251.125-36.036 39.313 16.38-49.14z" fill="#000"/><path d="M102.662 208.55l47.199 6.293-23.6-40.906-23.599 34.613zm-.396.375l-.341-.046 24.367-35.737 24.366 42.235-48.392-6.452z" fill="#000"/><path d="M150.679 214.967l45.666 7.874-11.022-45.667-34.644 37.793zm-.455.352l-.383-.066 35.438-38.659.268-.293 11.361 47.067-46.684-8.05z" fill="#000"/><path d="M102.561 208.964l11.039 53.615 36.269-47.307-47.308-6.308zm-.535-.499l48.625 6.484-36.997 48.256-.282.368-11.346-55.108zM142.317 119.754l-15.742 53.523 39.355-6.296-23.613-47.227zm-.103-1.152l24.353 48.705-40.588 6.495 16.235-55.2z" fill="#000"/><path d="M166.795 167.18l18.615 9.308 35.678-27.922-54.293 18.614zm-1.093-.073l57.628-19.758-37.764 29.555-.106.083-19.758-9.88zM126.489 122.55v49.518l15.474-52.614-15.474 3.096zm-.424-.348l16.503-3.3-16.503 56.109V122.2z" fill="#000"/><path d="M54.984 125.756l71.081 47.388v-50.547l-71.08 3.16zm-1.313-.366l72.596-3.226.222-.01v51.782L53.67 125.39zM150.623 215.388l22.045 47.237 23.618-39.365-45.663-7.872zm-.726-.555l47.07 8.115-24.141 40.237-.205.342-22.724-48.694z" fill="#000"/><path d="M196.127 224.35l-23.02 38.366 15.347-4.604 7.673-33.762zm1-2.491l-8.315 36.588-16.631 4.99 24.946-41.578z" fill="#000"/><path d="M150.215 215.516l-36.3 47.348h58.396l-22.096-47.348zm.09-.812l22.672 48.584h-59.92l37.248-48.584zM185.725 177.036l11.048 45.768 58.394-26.83-69.442-18.938zm-.58-.597l71.259 19.434-59.923 27.532-11.336-46.966z" fill="#000"/><path d="M196.784 223.37l-7.853 34.553 51.83-21.989-43.977-12.565zm-.314-.531l45.56 13.017-53.696 22.78 8.136-35.797zM142.692 119.556l23.663 47.328 55.215-18.931-78.878-28.397zm-.852-.757l80.44 28.96.568.204-56.706 19.442-24.302-48.606zM48.687 183.253l53.533 25.193 23.618-34.64-77.151 9.447zm-1.51-.241l79.538-9.74-24.247 35.562-.1.15-55.19-25.972z" fill="#000"/><path d="M64.316 242.227l48.881 20.498-11.038-53.611-37.843 33.113zm-.79.128l38.902-34.04 11.347 55.112-50.25-21.072z" fill="#000"/><path d="M48.256 183.52l15.78 58.388 37.874-33.14-53.654-25.249zm-.529-.332l-.119-.442 54.776 25.777.293.137-38.872 34.014-16.078-59.486zM197.236 223.058l44.027 12.58 14.152-39.31-58.18 26.73zm-1.217.093l60.137-27.63-14.561 40.446-.067.187-45.51-13.003z" fill="#000"/><path d="M185.898 176.644l69.378 18.921-33.113-47.303-36.265 28.382zm-.926.187l37.283-29.178 34.04 48.63-71.323-19.452zM151.338 74.281l-24.671 47.8 15.42-3.083 9.251-44.717zm1.041-2.94l-9.934 48.017-16.559 3.312 26.493-51.33z" fill="#000"/><path d="M142.702 119.11l79.25 28.53-11.096-80.834-68.154 52.304zm-.873.136l69.348-53.22 11.29 82.25-80.638-29.03zM92.699 93.873l-37.753 31.46 70.786-3.145L92.7 93.873zm-.134-.44l.137-.114 34.12 29.245-73.113 3.249 38.856-32.38z" fill="#000"/><path d="M54.5 125.943l-6.328 56.947 77.512-9.491L54.5 125.943zm-.383-.393l.038-.346 72.715 48.476-79.178 9.695 6.425-57.825zM93.117 93.674l33.094 28.367 25.215-48.853-58.31 20.486zm-.833-.156l59.504-20.907.504-.177-25.827 50.039-.123.238-34.058-29.193zM189.25 258.248l40.815 12.558 10.989-34.535-51.804 21.977zm-1.235.064l53.298-22.611.424-.18-11.395 35.814-42.327-13.023z" fill="#000"/><path d="M241.519 236.207l-11.004 34.583 53.448-11.004-42.444-23.58zm-.247-.623l43.896 24.387-55.276 11.38 11.38-35.767zM211.346 67.255l10.997 80.12 21.994-32.99-32.991-47.13zm-.658-1.68l34.162 48.804-22.775 34.161-11.387-82.964z" fill="#000"/><path d="M222.64 148.204l33.136 47.337 26.824-42.603-59.96-4.734zm-.862-.493l61.554 4.86-27.537 43.736-34.017-48.596zM64.114 242.602l-3.155 50.473 52.05-29.97-48.895-20.503zm-.404-.324l.018-.297 50.235 21.065-53.134 30.592-.341.197 3.222-51.557zM105.623 55.5L93.038 93.252l58.203-20.45-45.618-17.304zm-.333-.344l.07-.21 47.116 17.873-60.113 21.12 12.927-38.783z" fill="#000"/><path d="M51.366 100.17l3.124 24.993L91.98 93.92l-40.614 6.248zm-.472-.357l42.527-6.542-39.255 32.714-3.272-26.172z" fill="#000"/><path d="M50.977 100.48l-26.474 29.588 29.59-4.672-3.116-24.916zm-.005-.63l.31-.347 3.281 26.248-31.169 4.921L50.972 99.85z" fill="#000"/><g transform="translate(0 66.102)"><mask id="prefix__f" fill="#fff"><use xlink:href="#prefix__e"/></mask><path d="M19.474 96.217l28.288 20.43 6.286-56.576-34.574 36.146zm-.642.058l35.775-37.402-6.504 58.542-29.271-21.14z" fill="#000" mask="url(#prefix__f)"/><path fill="#000" mask="url(#prefix__f)" d="M48.343 117.066L0 140.618v-.471l47.521-23.152-28.313-20.448L0 125.817v-.772l19.097-29.1 29.246 21.121M152.035 6.903l-9.447 45.659 67.7-51.956-58.253 6.297zm-.353-.388L211.745.022l-69.802 53.569 9.74-47.076z"/><path fill="#000" mask="url(#prefix__f)" d="M48.057 116.681l16.068 59.453.096.355L0 159.363v-.439l63.62 16.966-15.813-58.509L0 151.528v-.52l47.809-34.149.248-.178"/></g><path d="M24.136 130.555L19.46 161.72l34.28-35.838-29.605 4.674zm-.373-.37l31.152-4.918-35.61 37.227-.46.483 4.918-32.792zM222.586 147.775l59.824 4.723-37.784-37.784-22.04 33.06zm-.753.365l22.727-34.09 38.963 38.96-61.69-4.87zM241.68 235.728l37.706 6.284-23.566-45.56-14.14 39.276zm-.32.377l-.25-.042 14.64-40.668 24.4 47.175-38.79-6.465zM50.124 31.725l42.51 61.402 12.595-37.786-55.105-23.616zm-1.186-.97l56.637 24.273.18.077-12.988 38.96-43.83-63.31zM201.768 22.245l9.394 43.836 23.484-14.09-32.878-29.746zm-.689-1.196l34.063 30.82.212.19-24.482 14.69-9.793-45.7z" fill="#000"/><path d="M211.403 66.598l32.692 46.703-12.454-48.26-20.238 1.557zm-.772-.365l21.332-1.641 13.128 50.87-34.46-49.23z" fill="#000"/><path d="M234.67 52.47l-22.775 13.666 19.739-1.52 3.037-12.145zm.66-.89l-3.36 13.436-21.832 1.68L235.33 51.58zM242.571 236.306l41.657 23.144-4.629-16.973-37.028-6.17zm-2.35-.82l39.582 6.596.134.023 4.965 18.203-44.682-24.823z" fill="#000"/><g transform="translate(0 20.904)"><mask id="prefix__h" fill="#fff"><use xlink:href="#prefix__g"/></mask><path d="M201.3 1.176l-48.881 50.457 58.341-6.307-9.46-44.15zm.247-.866l9.726 45.387L151.3 52.18 201.547.31zM64.377 221.29L4.621 269.741 0 245.481v-2.265l4.905 25.749 58.559-47.48L0 204.56v-.438l63.975 17.06.402.108" fill="#000" mask="url(#prefix__h)"/><path d="M105.935 34.261l45.665 17.32-6.298-45.663-39.367 28.343zm-.887.116l40.577-29.215 6.493 47.07-47.07-17.855zM48.055 162.401L0 196.726v-.52l45.748-32.678L0 185.816v-.471l47.84-23.307.215.363" fill="#000" mask="url(#prefix__h)"/></g><path d="M5.321 290.076l55.204 3.155 3.154-50.471-58.358 47.316zm-.57.392l-.548-.03 59.96-48.615-3.242 51.855-56.17-3.21z" fill="#000"/><g transform="translate(0 20.904)"><mask id="prefix__j" fill="#fff"><use xlink:href="#prefix__i"/></mask><path d="M145.704 5.732l6.305 45.715 48.868-50.445-55.173 4.73zm-.45-.164l-.03-.22L201.97.482l-50.262 51.884-6.454-46.799zM27.219 22.756l24.314 56.735L0 57.405v-.461l50.727 21.74-23.652-55.186L0 50.574v-.6l26.997-26.997.222-.221" fill="#000" mask="url(#prefix__j)"/></g><path d="M49.76 31.942l1.576 67.803 40.998-6.307-42.575-61.496zm-.457-1.404l43.572 62.938.193.278-42.144 6.483-1.621-69.699z" fill="#000"/><g transform="translate(0 30.508)"><mask id="prefix__l" fill="#fff"><use xlink:href="#prefix__k"/></mask><path d="M27.416 13.613l23.477 54.779-1.565-67.3-21.912 12.521zm-.539-.18L49.734.37l1.633 70.204-24.49-57.143z" fill="#000" mask="url(#prefix__l)"/><path fill="#000" mask="url(#prefix__l)" d="M51.485 69.405l-27.378 30.598-.202.226L0 55.077v-.906l23.994 45.323 26.781-29.932L0 47.801v-.461l51.213 21.948.272.117"/></g><path d="M256.08 195.852l29.378 17.326-2.673-59.738-26.704 42.412zm-.59.143l27.657-43.927 2.77 61.873-30.427-17.946z" fill="#000"/><path d="M256.312 196.48l23.37 45.182 5.767-27.998-29.137-17.184zm-1.053-1.112l30.536 18.009.13.077-5.95 28.88-.13.566-24.586-47.532z" fill="#000"/><path d="M285.793 214.099l-5.584 27.102 11.535-18.176-5.951-8.926zm-.211-1.08l6.667 10-12.921 20.362 6.254-30.361z" fill="#000"/><path d="M279.997 242.326l4.537 16.634 7.029-34.859-11.566 18.225zm-.457-.07l12.89-20.312-7.834 38.853-5.056-18.54z" fill="#000"/><path fill="#000" d="M292.002 221.92L300 264.023v2.271l-8.01-42.169-7.2 35.709L300 282.703v.765l-15.66-23.545 7.662-38.003M282.742 152.475l17.258 4.64v.439l-16.809-4.52 2.678 59.861L300 191.372v.773l-14.495 22.078-2.763-61.748"/><path fill="#000" d="M300 143.214v.483l-16.468 8.99L300 157.115v.439l-17.599-4.733L300 143.214"/><path fill="#000" d="M295.088 75.377L300 84.65v.905l-4.693-8.86-12.063 75.667L300 143.214v.483l-17.311 9.45 12.399-77.77"/><path d="M244.915 114.403l37.908 37.908 12.083-75.788-49.99 37.88zm-.643-.044l51.218-38.81-12.38 77.649-38.838-38.839z" fill="#000"/><path d="M232.09 65.082l12.629 48.938 49.964-37.86-62.593-11.078zm-.575-.532l64.197 11.362-50.99 38.638-.254.192-12.953-50.192z" fill="#000"/><path fill="#000" d="M230.706 64.838L300 49.788v.433l-67.102 14.574 62.228 11.013L300 70.934v.599l-4.731 4.731-64.563-11.426"/><path fill="#000" d="M231.514 65.096l3.317-13.269L300 46.231v.425l-64.831 5.567-3.079 12.314L300 49.788v.433l-68.153 14.803-.333.072"/><path fill="#000" d="M293.437 0h.64L235.62 51.759 300 46.231v.425l-65.62 5.636L293.437 0"/><path fill="#000" d="M262.749 0h.48L235.75 51.078 293.437 0h.64L234.25 52.973 262.749 0"/><path fill="#000" d="M201.09 21.631L230.211 0h.71l-29.164 21.663 33.185 30.024L262.749 0h.481l-28.171 52.364-33.969-30.733"/><path fill="#000" d="M213.497 0h.488l-11.879 20.876L230.211 0h.71l-30.179 22.418L213.497 0"/><path fill="#000" d="M201.553 21.849l-56.909 4.878L185.54 0h.775l-40.031 26.16 55.011-4.715L213.497 0h.488l-12.377 21.751-.055.098"/><path fill="#000" d="M161.962 0h.502l-16.299 25.732L185.54 0h.775l-41.553 27.155L161.962 0"/><path fill="#000" d="M145.269 26.36L156.587 0h.461l-10.341 24.084L161.962 0h.502l-16.822 26.557-.373-.197M49.889 31.28L27.044 44.334 8.592 0h.458l18.2 43.728 21.923-12.527L15.095 0h.628l33.951 31.084.215.196"/><path fill="#000" d="M145.734 26.51L105.24 55.665 110.072 0h.425l-4.755 54.781 39.451-28.404L131.884 0h.474l13.295 26.348.081.162"/><path fill="#000" d="M131.884 0h.474l13.09 25.942L156.588 0h.46l-11.569 26.945L131.884 0M49.169 31.316L78.553 0h.58l-29.24 31.164 55.413 23.749L110.072 0h.425l-4.82 55.533-56.508-24.217"/><path fill="#000" d="M49.075 32.036L58.553 0h.442l-9.008 30.444L78.553 0h.58L49.685 31.385l-.61.651"/><path fill="#000" d="M15.095 0h.628l33.701 30.855L58.553 0h.442l-9.357 31.625L15.095 0M300 191.146v.772l-13.824 21.065L300 206.249v.471l-15.023 7.32L300 191.146M300 217.11v.52l-7.54 5.385 7.54 2.011v.438l-8.517-2.271L300 217.11"/><path fill="#000" d="M300 225.025v.44l-7.757-2.069L300 264.12v2.264l-8.299-43.572 8.299 2.213"/><path fill="#000" d="M291.917 223.404l-6.651-9.977L300 206.249v.471l-14.112 6.876 6.139 9.209L300 217.11v.52l-7.905 5.646-.178.128M300 70.879v.599l-4.459 4.459L300 77.848v.461l-5.202-2.229L300 70.879"/><path fill="#000" d="M300 77.849v.46l-4.363-1.869L300 84.68v.905l-5.298-10.007L300 77.849M7.145 290.447a2.312 2.312 0 11-4.624 0 2.312 2.312 0 014.624 0M66.355 242.46a2.312 2.312 0 11-4.624 0 2.312 2.312 0 014.624 0M63.272 293.075a2.312 2.312 0 11-4.624 0 2.312 2.312 0 014.624 0M115.949 263.27a2.312 2.312 0 11-4.625 0 2.312 2.312 0 014.625 0M152.624 215.06a2.312 2.312 0 11-4.625 0 2.312 2.312 0 014.625 0M104.79 208.845a2.312 2.312 0 11-4.625 0 2.312 2.312 0 014.624 0M175.223 263.082a2.312 2.312 0 11-4.625 0 2.312 2.312 0 014.625 0M191.23 258.186a2.312 2.312 0 11-4.624 0 2.312 2.312 0 014.624 0M50.282 183.05a2.312 2.312 0 11-4.623 0 2.312 2.312 0 014.623 0M199.14 222.875a2.312 2.312 0 11-4.624 0 2.312 2.312 0 014.624 0M21.817 162.16a2.312 2.312 0 11-4.568.726 2.312 2.312 0 014.568-.726M56.812 125.943a2.312 2.312 0 11-4.624 0 2.312 2.312 0 014.624 0M26.216 130.738a2.312 2.312 0 11-4.624 0 2.312 2.312 0 014.624 0M53.672 99.812a2.312 2.312 0 11-4.623 0 2.312 2.312 0 014.623 0M95.082 93.315a2.312 2.312 0 11-4.625 0 2.312 2.312 0 014.625 0M52.166 31.638a2.312 2.312 0 11-4.624 0 2.312 2.312 0 014.624 0M29.567 43.88a2.312 2.312 0 11-4.624 0 2.312 2.312 0 014.624 0M107.934 54.934a2.312 2.312 0 11-4.623.001 2.312 2.312 0 014.623 0M147.79 26.349a2.312 2.312 0 11-4.624 0 2.312 2.312 0 014.624 0M153.912 73.176a2.312 2.312 0 11-4.624 0 2.312 2.312 0 014.624 0M204.08 22.245a2.312 2.312 0 11-4.623 0 2.312 2.312 0 014.624 0M237.717 51.977a2.312 2.312 0 11-4.624 0 2.312 2.312 0 014.624 0M234.84 64.784a2.312 2.312 0 11-4.625-.001 2.312 2.312 0 014.625 0M213.715 66.598a2.312 2.312 0 11-4.624 0 2.312 2.312 0 014.624 0M246.938 114.15a2.312 2.312 0 11-4.624-.002 2.312 2.312 0 014.624.001"/><path d="M297.62 76.695a2.312 2.312 0 11-4.624 0 2.312 2.312 0 014.623 0M284.81 154.132a2.312 2.312 0 11-3.81-2.618 2.312 2.312 0 013.81 2.618M224.67 147.834a2.312 2.312 0 11-4.624 0 2.312 2.312 0 014.625 0M187.759 177.024a2.312 2.312 0 11-4.625 0 2.312 2.312 0 014.625 0M168.55 167.42a2.312 2.312 0 11-4.625 0 2.312 2.312 0 014.625 0M257.727 196.327a2.312 2.312 0 11-4.624 0 2.312 2.312 0 014.624 0M288.21 213.55a2.312 2.312 0 11-4.624 0 2.312 2.312 0 014.625 0M294.425 223.154a2.312 2.312 0 11-4.624 0 2.312 2.312 0 014.624 0M243.578 236.149a2.312 2.312 0 11-4.625 0 2.312 2.312 0 014.625 0M286.695 259.786a2.312 2.312 0 11-4.625 0 2.312 2.312 0 014.625 0M232.655 271.251a2.312 2.312 0 11-4.624 0 2.312 2.312 0 014.624 0M128.405 173.646a2.312 2.312 0 11-4.624 0 2.312 2.312 0 014.624 0M144.629 119.754a2.312 2.312 0 11-4.624 0 2.312 2.312 0 014.624 0M128.8 122.55a2.312 2.312 0 11-4.623 0 2.312 2.312 0 014.624 0" fill="#000"/></g></svg>