<svg xmlns="http://www.w3.org/2000/svg" viewBox="0 0 24 24">
  <path fill-rule="evenodd" fill="currentColor" clip-rule="evenodd"
    d="M16.8384 18.2926C19.8234 17.9335 22.4225 16.0808 22.749 14.3878C23.2638 11.7208 23.2213 7.87952 23.2213 7.87952C23.2213 2.67319 19.8353 1.14719 19.8353 1.14719C18.128 0.357295 15.1964 0.0250334 12.1508 0H12.0759C9.03022 0.0250334 6.10045 0.357295 4.39314 1.14719C4.39314 1.14719 1.00704 2.6733 1.00704 7.87962C1.00704 8.19525 1.00542 8.52723 1.00374 8.87283C0.999057 9.83262 0.993862 10.8975 1.02142 12.0089C1.14433 17.1004 1.94793 22.1184 6.62085 23.3643C8.77536 23.9389 10.6252 24.0591 12.1151 23.9766C14.8167 23.8257 16.3334 23.0053 16.3334 23.0053L16.2444 21.0305C16.2444 21.0305 14.3136 21.6439 12.1453 21.5691C9.99709 21.4948 7.72922 21.3357 7.38174 18.6785C7.3496 18.4452 7.33358 18.1957 7.33358 17.9335C7.33358 17.9335 9.4425 18.4528 12.115 18.5761C13.7492 18.6516 15.2818 18.4797 16.8384 18.2926ZM19.2274 14.5874V8.28343C19.2274 6.99504 18.9018 5.97115 18.2478 5.21374C17.5732 4.45622 16.6898 4.06799 15.5935 4.06799C14.3247 4.06799 13.3639 4.55925 12.7288 5.54176L12.1112 6.58468L11.4937 5.54176C10.8584 4.55914 9.89772 4.06799 8.62907 4.06799C7.53251 4.06799 6.64923 4.45632 5.9747 5.21374C5.3206 5.97126 4.995 6.99504 4.995 8.28343V14.5874H7.47419V8.4687C7.47419 7.17886 8.01286 6.52427 9.09043 6.52427C10.2818 6.52427 10.879 7.30082 10.879 8.83644V12.1856H13.3436V8.83644C13.3436 7.30082 13.9407 6.52427 15.132 6.52427C16.2096 6.52427 16.7483 7.17886 16.7483 8.4687V14.5874H19.2274Z">
  </path>
</svg>
