<svg viewBox="0 0 24 24" xmlns="http://www.w3.org/2000/svg"><path d="M12 0C5.373 0 0 5.373 0 12s5.373 12 12 12 12-5.373 12-12S18.627 0 12 0zm.371 5.074c1.093 0 1.893.298 2.427.881.534.584.8 1.39.8 2.388 0 .597-.122 1.15-.365 1.652a3.47 3.47 0 01-1.059 1.244c.663.287 1.17.682 1.521 1.183.351.5.527 1.095.527 1.78 0 1.07-.374 1.922-1.122 2.552-.748.63-1.766.944-3.057.944-1.283 0-2.3-.317-3.053-.951-.753-.634-1.13-1.487-1.13-2.555 0-.68.175-1.272.524-1.77.35-.5.856-.896 1.523-1.183a3.433 3.433 0 01-1.056-1.244 3.47 3.47 0 01-.361-1.652c0-.998.264-1.802.792-2.386.527-.584 1.323-.883 2.089-.883zm0 1.523c-.601 0-1.07.175-1.406.527-.337.351-.506.84-.506 1.463 0 .617.17 1.103.51 1.454.34.35.807.526 1.402.526.597 0 1.063-.175 1.398-.526.336-.351.504-.837.504-1.454 0-.622-.168-1.112-.504-1.463-.335-.352-.801-.527-1.398-.527zm0 5.164c-.736 0-1.308.194-1.716.582-.408.389-.612.924-.612 1.608 0 .681.204 1.214.612 1.599.408.386.98.578 1.716.578.73 0 1.3-.192 1.712-.578.412-.385.618-.918.618-1.599 0-.684-.206-1.219-.618-1.608-.412-.388-.982-.582-1.712-.582z"/></svg>
