<svg xmlns="http://www.w3.org/2000/svg" viewBox="0 0 24 24"><path d="M12 0C5.375 0 0 5.375 0 12s5.375 12 12 12 12-5.375 12-12S18.625 0 12 0zm.885 5.968c.545-.01 1.006.04 1.39.13.87.2 1.01.62.97 1.015-.06.76-.56 1.28-1.1 1.7-.16.12-.13.22-.04.32.18.21.46.39.65.61.12.15.26.33.27.55.02.35-.27.72-.56.98-.25.21-.13.38-.08.56.06.2.28.37.27.62-.01.25-.19.43-.42.55-.14.08-.17.18-.1.32.22.45.07.84-.25 1.15-.36.35-.88.52-1.34.6-.24.04-.4.1-.57.3-.3.34-.64.6-1.05.72-.44.12-.86.02-1.28-.13-.38-.13-.77-.26-1.17-.2-.25.04-.49.14-.73.24-.37.15-.74.27-1.13.18-.37-.08-.65-.33-.88-.62-.44-.57-.59-1.25-.66-1.94-.04-.36-.09-.72-.2-1.07-.1-.3-.26-.58-.42-.87-.24-.43-.48-.87-.58-1.36-.17-.84-.08-1.79.36-2.55.27-.47.65-.84 1.06-1.16.2-.16.4-.3.55-.5.17-.23.27-.5.37-.77.23-.64.47-1.28.85-1.84.25-.37.56-.7.96-.89.35-.17.73-.22 1.1-.22.47 0 .93.09 1.38.1zm.975 12.53c-.03.04-.06.08-.1.12a1.2 1.2 0 01-1.52.16c-.21-.16-.37-.38-.47-.62-.08-.19-.11-.39-.08-.59.09-.57.59-.97 1.15-.95.46.02.87.33 1.04.76.12.31.1.67-.03.97-.02.05-.06.1-.09.15z"/></svg>