<svg height="512" preserveAspectRatio="xMidYMid meet" viewBox="0 0 512 512" width="512" xmlns="http://www.w3.org/2000/svg" xmlns:xlink="http://www.w3.org/1999/xlink"><defs><path id="a" d="m207.43 279.54-10.34 38.48-8.78-38.48z"/><path id="b" d="m311.58 279.54-10.34 38.48-8.78-38.48z"/></defs><path d="m454.06 37.84c11.05 0 20 8.95 20 20v381.84c0 11.04-8.95 20-20 20-84.5 0-318.02 0-402.53 0-11.04 0-20-8.96-20-20 0-80.37 0-301.47 0-381.84 0-11.05 8.96-20 20-20z" fill="#282a36"/><path d="m414.29 239.56c0 87.87-73.65 159.2-164.37 159.2-90.71 0-164.36-71.33-164.36-159.2 0-87.86 73.65-159.19 164.36-159.19 90.72 0 164.37 71.33 164.37 159.19z" fill="#bd93f9"/><path d="m343.58 290.74c0 42.49-41.96 77-93.66 77-51.69 0-93.66-34.51-93.66-77 0-42.5 41.97-77 93.66-77 51.7 0 93.66 34.5 93.66 77z" fill="#282a36"/><path d="m337.28 171.17c0 14.59-11.85 26.44-26.44 26.44s-26.43-11.85-26.43-26.44 11.84-26.43 26.43-26.43 26.44 11.84 26.44 26.43z" fill="#282a36"/><path d="m214.75 173.93c0 14.59-11.84 26.44-26.44 26.44-14.59 0-26.43-11.85-26.43-26.44s11.84-26.44 26.43-26.44c14.6 0 26.44 11.85 26.44 26.44z" fill="#282a36"/><g fill="#bd93f9"><path d="m252.8 154.14 68.33-44.72 23.92 36.55-68.34 44.72z"/><path d="m221.42 195.81-61.88-53.29 28.5-33.1 61.88 53.29z"/><path d="m117.04 208.01h248.96v72.36h-248.96z"/><use xlink:href="#a"/></g><use fill="none" xlink:href="#a"/><use fill="#bd93f9" xlink:href="#b"/><use fill="none" xlink:href="#b"/></svg>