<svg fill="none" height="167" viewBox="0 0 395 167" width="395" xmlns="http://www.w3.org/2000/svg"><path clip-rule="evenodd" d="m29.631 0h-29.631v166.967h29.631v-120.0709l53.0927 58.4329 53.0923-58.4329v120.0709h.315 29.316 86.82 29.401.23v-44.332l47.577.107c11.217 0 20.938-1.531 29.164-4.594 8.226-3.133 15.018-7.442 20.377-12.926 5.422-5.5544 9.441-12.1063 12.058-19.6553 2.617-7.5489 3.926-15.7745 3.926-24.6765 0-9.4718-1.34-17.9822-4.019-25.5312-2.618-7.5489-6.637-13.9228-12.058-19.1216-5.422-5.27-12.245-9.29378-20.471-12.07123s-17.947-4.16617-29.164-4.16617h-43.04-33.981-86.82-.447-29.184l-53.0923 60.8902zm135.816 28.8427v95.1803l51.631-75.6313 14.021-19.549zm-5.104 102.6583v-125.66694h-22.407l-55.2123 63.32124-55.2125-63.32124h-22.40632v155.29894h19.42122v-127.9548l58.1976 64.0516 58.1973-64.0516v126.7718zm91.924-82.7233-47.808 68.6233-14.581 20.724h62.389zm24.526 89.3473h-19.422v-96.6749l24.813-35.61604h47.104c10.869 0 20.08 1.34829 27.718 3.92708 7.679 2.59296 13.831 6.27496 18.609 10.92016l.013.0127.013.0126c4.77 4.5737 8.287 10.1491 10.594 16.8015l.007.022.008.022c2.396 6.7486 3.645 14.4973 3.645 23.3381 0 8.2373-1.209 15.7257-3.567 22.5274-2.318 6.6875-5.872 12.4939-10.72 17.4614-4.74 4.849-10.878 8.797-18.566 11.728-7.585 2.821-16.741 4.3-27.562 4.301h-.005l-52.682-.119zm69.468-41.4444-.023.008c-4.785 1.7143-10.214 2.5104-16.202 2.5104h-53.243v-75.5494h53.243c11.826 0 21.649 2.907 28.558 9.7348 6.997 6.7798 10.291 16.2192 10.291 27.5058 0 5.5612-.812 10.7922-2.512 15.6185-1.676 4.8636-4.277 9.0484-7.749 12.499l-.007.0063c-3.414 3.382-7.573 5.8979-12.334 7.6584zm15.369-22.3305c1.433-4.0593 2.15-8.546 2.15-13.4599 0-9.8991-2.835-17.5905-8.506-23.0742-5.608-5.5549-14.021-8.3323-25.238-8.3323h-48.138v63.8812h48.138c5.609 0 10.5-.7478 14.676-2.2433 4.237-1.5668 7.758-3.7389 10.562-6.5163 2.867-2.8487 4.985-6.2671 6.356-10.2552z" fill="#facc15" fill-rule="evenodd"/></svg>