<?xml version="1.0" standalone="no"?>
<!DOCTYPE svg PUBLIC "-//W3C//DTD SVG 20010904//EN"
 "http://www.w3.org/TR/2001/REC-SVG-20010904/DTD/svg10.dtd">
<svg version="1.0" xmlns="http://www.w3.org/2000/svg"
 width="460.000000pt" height="460.000000pt" viewBox="0 0 460.000000 460.000000"
 preserveAspectRatio="xMidYMid meet">
<metadata>
Created by potrace 1.14, written by Peter Selinger 2001-2017
</metadata>
<g transform="translate(0.000000,460.000000) scale(0.100000,-0.100000)"
fill="#000000" stroke="none">
<path d="M1240 4259 c-69 -49 -168 -119 -220 -155 -52 -36 -120 -83 -150 -105
-30 -22 -104 -74 -164 -116 -130 -90 -189 -142 -182 -159 3 -7 0 -14 -5 -16
-6 -2 -11 -11 -13 -21 -1 -10 -10 -26 -19 -37 -19 -22 -14 -30 119 -192 43
-53 113 -138 154 -189 41 -51 91 -112 110 -134 20 -22 53 -62 75 -90 22 -27
50 -59 61 -70 12 -11 52 -58 90 -105 97 -123 157 -190 166 -190 5 0 34 18 64
40 30 23 59 38 64 35 15 -9 24 17 9 26 -12 8 -12 11 1 19 39 25 44 29 37 36
-4 4 -16 -1 -28 -12 -21 -18 -21 -18 -50 16 l-29 35 27 22 27 22 52 -57 c30
-31 53 -62 54 -69 0 -6 11 -20 25 -31 14 -11 25 -25 25 -31 0 -6 5 -11 10 -11
16 0 12 14 -21 63 -26 39 -29 50 -19 62 25 30 132 105 150 105 37 0 31 31 -15
78 l-45 47 21 18 c31 25 52 21 72 -13 10 -16 43 -55 73 -87 50 -53 54 -55 43
-25 -6 17 -15 32 -20 32 -16 0 -9 34 11 58 11 13 24 21 30 17 5 -3 10 0 10 8
0 8 27 27 59 43 33 16 60 35 60 42 1 7 -18 33 -41 58 l-43 46 24 19 c21 17 24
17 47 2 25 -16 50 -52 46 -65 -1 -5 3 -7 10 -5 6 1 18 -11 26 -28 14 -28 48
-65 60 -65 3 0 -1 8 -9 18 -38 47 -41 61 -17 91 13 16 35 36 50 45 31 19 45
53 29 69 -6 6 -11 27 -11 47 0 27 -3 32 -10 20 -8 -11 -9 -8 -4 13 7 31 -4 48
-126 190 -41 49 -102 121 -135 161 -33 40 -96 115 -140 167 -45 52 -94 111
-110 131 -85 104 -227 268 -233 268 -4 0 -63 -41 -132 -91z m10 -359 c0 -5 -2
-10 -4 -10 -3 0 -8 5 -11 10 -3 6 -1 10 4 10 6 0 11 -4 11 -10z m46 -55 c19
-18 34 -39 34 -45 0 -13 -33 -5 -65 14 -30 19 -64 25 -67 14 -2 -6 -12 -2 -23
8 -16 17 -17 19 -2 22 9 2 36 -6 61 -16 52 -24 65 -18 34 15 -12 13 -18 23
-13 23 4 0 23 -16 41 -35z m-155 -56 c5 -10 7 -39 3 -64 -4 -36 -3 -45 10 -45
8 0 18 5 21 10 3 6 14 10 23 10 11 0 4 -8 -17 -21 -49 -30 -61 -20 -54 40 6
55 -6 81 -38 81 -12 0 -21 -10 -25 -25 -7 -30 -24 -33 -24 -6 0 45 79 60 101
20z m379 21 c0 -5 18 -28 40 -50 22 -22 40 -43 40 -47 0 -5 -23 -9 -50 -10
-42 -2 -50 0 -51 15 0 9 -2 36 -5 60 -5 34 -3 42 10 42 9 0 16 -4 16 -10z
m-257 -73 c-3 -5 -14 1 -24 14 -27 35 -23 46 6 19 13 -12 22 -27 18 -33z m158
-49 c44 -49 51 -91 19 -108 -21 -11 -60 2 -60 20 0 13 13 13 28 -2 13 -13 42
5 42 27 0 16 -70 85 -87 85 -24 0 -26 -31 -4 -61 12 -16 17 -29 12 -29 -5 0
-20 14 -32 31 -19 27 -20 34 -9 55 19 35 47 30 91 -18z m-895 -54 c-4 -9 -1
-24 6 -33 10 -14 9 -14 -6 1 -17 15 -17 48 0 48 3 0 3 -7 0 -16z m776 -36 c39
-44 47 -75 26 -96 -15 -15 -58 -16 -58 -1 0 5 4 8 9 5 5 -4 16 -3 25 0 20 8
21 50 1 58 -8 3 -15 2 -15 -3 0 -16 -49 -22 -70 -9 -44 28 -31 88 18 88 19 0
38 -12 64 -42z m348 34 c0 -4 22 -31 49 -60 26 -28 47 -52 46 -52 -2 0 -10 -3
-19 -6 -10 -4 -16 -1 -16 10 0 8 -18 34 -40 57 -40 42 -49 59 -30 59 6 0 10
-3 10 -8z m-136 -89 c-31 -30 -42 -27 -24 6 6 12 20 21 32 21 19 0 18 -2 -8
-27z m62 -7 c3 -13 16 -29 30 -36 41 -22 26 -81 -20 -79 -20 0 -20 1 2 11 12
6 22 19 22 29 0 18 -34 44 -48 35 -4 -2 -7 11 -8 30 -1 39 13 45 22 10z m-421
-16 c8 -16 24 -34 35 -40 22 -12 27 -49 8 -68 -15 -15 -68 -16 -68 -1 0 6 7 8
16 5 25 -9 53 11 47 34 -5 20 -13 24 -44 21 -12 -1 -15 5 -11 29 4 30 3 31
-24 28 -20 -2 -30 -10 -34 -28 -4 -15 -9 -20 -13 -13 -8 13 2 45 17 55 25 17
56 8 71 -22z m-545 -10 c0 -5 -2 -10 -4 -10 -3 0 -8 5 -11 10 -3 6 -1 10 4 10
6 0 11 -4 11 -10z m851 -92 c32 -39 40 -54 32 -66 -17 -29 -40 -37 -65 -24
l-23 12 25 -2 c51 -5 68 30 25 50 -14 7 -25 20 -25 31 0 22 -34 46 -50 36 -6
-3 -10 -17 -10 -31 0 -13 -4 -24 -10 -24 -19 0 -10 48 13 63 29 19 37 15 88
-45z m-791 22 c0 -5 -2 -10 -4 -10 -3 0 -8 5 -11 10 -3 6 -1 10 4 10 6 0 11
-4 11 -10z m50 -75 c0 -5 -5 -3 -10 5 -5 8 -10 20 -10 25 0 6 5 3 10 -5 5 -8
10 -19 10 -25z m575 -2 c9 -10 29 -33 45 -51 17 -18 30 -39 30 -46 0 -23 -37
-49 -62 -42 -27 7 -98 91 -98 117 0 36 59 51 85 22z m-548 -35 c-3 -8 -6 -5
-6 6 -1 11 2 17 5 13 3 -3 4 -12 1 -19z m243 -278 c0 -5 -2 -10 -4 -10 -3 0
-8 5 -11 10 -3 6 -1 10 4 10 6 0 11 -4 11 -10z m137 -162 c-3 -8 -6 -5 -6 6
-1 11 2 17 5 13 3 -3 4 -12 1 -19z m48 -68 c3 -5 1 -10 -4 -10 -6 0 -11 5 -11
10 0 6 2 10 4 10 3 0 8 -4 11 -10z"/>
<path d="M1510 3759 c0 -31 15 -53 29 -45 17 11 13 31 -9 51 -19 18 -20 17
-20 -6z"/>
<path d="M1216 3611 c-16 -17 -16 -20 0 -35 21 -21 58 -17 62 7 2 10 -5 25
-15 32 -24 19 -27 18 -47 -4z"/>
<path d="M1253 3359 c-24 -9 -31 -43 -12 -54 19 -12 59 4 59 24 0 27 -21 40
-47 30z"/>
<path d="M1281 3286 c-19 -23 22 -60 49 -46 24 13 26 45 4 54 -25 10 -41 7
-53 -8z"/>
<path d="M2095 3110 c3 -5 8 -10 11 -10 2 0 4 5 4 10 0 6 -5 10 -11 10 -5 0
-7 -4 -4 -10z"/>
<path d="M2126 3077 c3 -10 9 -15 12 -12 3 3 0 11 -7 18 -10 9 -11 8 -5 -6z"/>
<path d="M1760 2492 c0 -5 7 -15 15 -22 8 -7 15 -9 15 -6 0 4 -7 14 -15 22 -8
9 -15 11 -15 6z"/>
</g>
</svg>
